<?xml version="1.0" encoding="UTF-8" standalone="no"?>
<svg width="41px" height="14px" viewBox="0 0 41 14" version="1.1" xmlns="http://www.w3.org/2000/svg" xmlns:xlink="http://www.w3.org/1999/xlink">
    <!-- Generator: Sketch 41.2 (35397) - http://www.bohemiancoding.com/sketch -->
    <title>Group 2</title>
    <desc>Created with Sketch.</desc>
    <defs></defs>
    <g id="Page-1" stroke="none" stroke-width="1" fill="none" fill-rule="evenodd">
        <g id="Desktop" transform="translate(-663.000000, -248.000000)">
            <g id="Group-2" transform="translate(663.000000, 248.000000)">
                <path d="M6.49639385,0.935261667 C10.0724862,0.751011667 13.1206708,3.50247833 13.3048246,7.08043786 C13.4889785,10.6566426 10.7389477,13.7081736 7.16285538,13.8924236 C3.58851692,14.0766736 0.538578462,11.3252069 0.354424615,7.74724738 C0.170270769,4.16928786 2.92030154,1.11951167 6.49639385,0.935261667" id="Fill-6" fill="#3366FF"></path>
                <path d="M16.2609323,0.926663333 C19.8422862,0.926663333 22.7449015,3.83079429 22.7449015,7.4140181 C22.7449015,10.9954871 19.8422862,13.8996181 16.2609323,13.8996181 C12.6795785,13.8996181 9.77696308,10.9954871 9.77696308,7.4140181 C9.77696308,3.83079429 12.6795785,0.926663333 16.2609323,0.926663333" id="Fill-8" fill="#FFEB00"></path>
                <path d="M25.6908369,0.926663333 C29.2721908,0.926663333 32.1748062,3.83079429 32.1748062,7.4140181 C32.1748062,10.9954871 29.2721908,13.8996181 25.6908369,13.8996181 C22.1094831,13.8996181 19.2068677,10.9954871 19.2068677,7.4140181 C19.2068677,3.83079429 22.1094831,0.926663333 25.6908369,0.926663333" id="Fill-10" fill="#FF0000"></path>
                <path d="M33.9432092,0.926663333 C37.5245631,0.926663333 40.4271785,3.83079429 40.4271785,7.4140181 C40.4271785,10.9954871 37.5245631,13.8996181 33.9432092,13.8996181 C30.3618554,13.8996181 27.45924,10.9954871 27.45924,7.4140181 C27.45924,3.83079429 30.3618554,0.926663333 33.9432092,0.926663333" id="Fill-12" fill="#027A02"></path>
            </g>
        </g>
    </g>
</svg>